<svg width="12" height="8" viewBox="0 0 12 8" fill="none" xmlns="http://www.w3.org/2000/svg">
<path d="M11.0198 0.273325C11.2125 0.455471 11.3249 0.706677 11.3324 0.97171C11.3399 1.23674 11.2419 1.49391 11.0598 1.68666L5.39313 7.68666C5.30129 7.78373 5.19092 7.8614 5.06856 7.9151C4.94619 7.9688 4.8143 7.99742 4.68068 7.99928C4.54707 8.00115 4.41443 7.97621 4.29061 7.92595C4.1668 7.87569 4.05431 7.80113 3.95979 7.70666L0.959795 4.70666C0.783155 4.51709 0.686991 4.26636 0.691562 4.0073C0.696133 3.74823 0.801082 3.50105 0.9843 3.31783C1.16752 3.13461 1.4147 3.02966 1.67377 3.02509C1.93283 3.02052 2.18356 3.11668 2.37313 3.29332L4.64646 5.56532L9.60646 0.313325C9.78861 0.120654 10.0398 0.00820684 10.3048 0.0007059C10.5699 -0.00679504 10.827 0.0912647 11.0198 0.273325Z" fill="#7D63AD"/>
</svg>
