<svg width="222" height="144" viewBox="0 0 222 144" fill="none" xmlns="http://www.w3.org/2000/svg">
<rect width="222" height="144" fill="#E5E5E5"/>
<rect width="1440" height="1024" transform="translate(-1037 -773)" fill="white"/>
<path d="M123 141.902L44 27.9017H197L123 141.902Z" stroke="#7D63AD" stroke-width="2"/>
<path d="M55.1972 90.7789C55.1972 105.687 43.068 117.779 28.0986 117.779C13.1291 117.779 1 105.687 1 90.7789C1 75.8706 13.1291 63.7789 28.0986 63.7789C43.068 63.7789 55.1972 75.8706 55.1972 90.7789Z" stroke="#7D63AD" stroke-width="2"/>
<path d="M220.197 28C220.197 42.9084 208.068 55 193.099 55C178.129 55 166 42.9084 166 28C166 13.0916 178.129 1 193.099 1C208.068 1 220.197 13.0916 220.197 28Z" stroke="#7D63AD" stroke-width="2"/>
<g filter="url(#filter0_b_149_38)">
<rect x="-767" y="-611" width="900" height="700" rx="20" fill="white" fill-opacity="0.1"/>
<rect x="-766" y="-610" width="898" height="698" rx="19" stroke="#7D63AD" stroke-width="2"/>
</g>
<defs>
<filter id="filter0_b_149_38" x="-797" y="-641" width="960" height="760" filterUnits="userSpaceOnUse" color-interpolation-filters="sRGB">
<feFlood flood-opacity="0" result="BackgroundImageFix"/>
<feGaussianBlur in="BackgroundImage" stdDeviation="15"/>
<feComposite in2="SourceAlpha" operator="in" result="effect1_backgroundBlur_149_38"/>
<feBlend mode="normal" in="SourceGraphic" in2="effect1_backgroundBlur_149_38" result="shape"/>
</filter>
</defs>
</svg>
